<?xml version="1.0" standalone="no"?>
<!DOCTYPE svg PUBLIC "-//W3C//DTD SVG 20010904//EN"
 "http://www.w3.org/TR/2001/REC-SVG-20010904/DTD/svg10.dtd">
<svg version="1.0" xmlns="http://www.w3.org/2000/svg"
 width="1408.000000pt" height="768.000000pt" viewBox="0 0 1408.000000 768.000000"
 preserveAspectRatio="xMidYMid meet">

<g transform="translate(0.000000,768.000000) scale(0.100000,-0.100000)"
fill="#000000" stroke="none">
<path d="M8595 5863 l-280 -96 -180 -7 c-146 -6 -192 -12 -245 -30 -206 -70
-329 -251 -330 -486 0 -77 30 -266 55 -352 23 -75 22 -148 -2 -181 -34 -45
-78 -67 -226 -115 -301 -97 -558 -262 -791 -507 l-79 -83 -276 280 c-152 154
-378 385 -503 512 -125 128 -230 232 -233 232 -14 0 -2 -72 26 -154 60 -176
123 -292 241 -443 26 -35 48 -65 48 -68 0 -3 -9 -5 -19 -5 -47 0 -35 -30 96
-240 84 -134 212 -317 305 -438 39 -50 47 -66 39 -81 -6 -10 -51 -47 -102 -82
-246 -172 -437 -309 -447 -322 -10 -12 -5 -16 31 -27 36 -10 62 -9 143 4 55 9
124 23 154 31 102 27 116 47 -175 -255 -131 -136 -185 -197 -185 -208 0 -11
76 -5 157 14 82 18 302 98 383 139 130 66 309 193 415 296 l50 49 60 -11 c33
-6 133 -12 223 -14 l164 -3 53 -59 c48 -54 54 -66 70 -141 9 -45 15 -98 13
-119 -3 -34 -7 -38 -43 -49 -22 -6 -103 -36 -180 -66 -141 -55 -184 -67 -352
-92 -161 -25 -209 -58 -411 -283 -90 -100 -182 -174 -280 -225 -37 -19 -83
-54 -109 -83 -43 -47 -126 -163 -152 -212 l-12 -23 1607 0 1606 0 -7 28 c-19
75 -191 522 -213 552 -14 19 -49 55 -79 80 -93 76 -137 125 -168 186 -68 135
-94 165 -170 200 -78 36 -140 47 -390 65 -88 7 -170 16 -182 20 -24 9 -37 47
-48 140 -6 52 -5 60 23 98 16 22 40 70 53 106 20 57 29 69 68 94 137 84 299
242 386 376 140 214 194 407 182 650 -7 153 -30 246 -102 426 -71 175 -82 225
-65 290 15 56 83 152 153 215 70 63 674 494 712 508 18 6 -25 43 -64 54 -81
25 -123 16 -416 -85z m285 14 c-258 -115 -579 -288 -699 -377 -42 -31 -90 -65
-106 -75 l-30 -19 20 23 c11 13 44 41 73 63 30 22 65 59 79 83 20 31 39 48 75
63 26 11 46 16 42 11 -8 -13 -3 -12 61 16 68 30 67 43 -2 22 -87 -28 -154 -40
-164 -30 -6 6 20 18 68 33 43 13 137 46 208 73 183 69 356 127 380 126 17 0
17 -2 -5 -12z m-55 -76 c-6 -4 -75 -52 -155 -106 -211 -144 -315 -222 -406
-308 -77 -72 -104 -90 -104 -67 0 10 96 94 205 178 38 28 66 52 63 52 -4 0
-53 -27 -110 -60 -58 -33 -120 -62 -139 -66 -33 -5 -33 -5 -14 11 31 25 239
147 340 198 50 26 142 75 205 111 116 65 132 73 115 57z m-760 -137 c-84 -31
-111 -85 -76 -157 12 -24 21 -47 21 -50 0 -4 -25 -44 -55 -88 -67 -97 -72
-117 -22 -84 21 13 27 13 62 -5 22 -11 66 -26 98 -32 44 -9 56 -16 52 -27 -35
-92 -25 -170 47 -356 61 -159 84 -247 97 -373 38 -363 -139 -718 -476 -959
-85 -61 -313 -177 -325 -165 -5 5 -1 34 11 70 21 68 13 77 -28 33 -18 -19 -38
-65 -60 -137 -41 -133 -71 -170 -129 -161 -25 4 -46 17 -65 39 -27 32 -129
219 -123 225 2 2 43 15 92 29 104 30 142 48 249 119 44 29 101 65 127 79 127
71 255 210 323 351 101 207 102 380 3 482 -28 29 -29 33 -14 48 21 22 21 47
-1 43 -10 -2 -19 -13 -21 -26 -4 -26 -5 -26 -70 -11 -41 10 -49 15 -44 31 2
10 1 18 -4 17 -23 -4 -33 2 -27 18 4 11 3 14 -6 9 -13 -8 -5 -47 12 -58 5 -3
-20 -9 -58 -13 -37 -4 -80 -14 -94 -21 -14 -8 -40 -14 -58 -14 -17 0 -33 -4
-35 -9 -3 -8 -108 -46 -238 -87 -41 -12 -43 -12 -25 2 37 29 159 80 259 109
54 16 122 43 150 60 99 59 124 166 79 345 -62 243 -63 395 -3 516 67 137 203
224 350 223 l65 0 -40 -15z m135 -4 c0 -5 -9 -10 -20 -10 -11 0 -20 5 -20 10
0 6 9 10 20 10 11 0 20 -4 20 -10z m-85 -74 c22 -33 5 -66 -33 -66 -33 0 -52
16 -52 45 0 48 58 62 85 21z m-1883 -1404 l238 -243 -63 -82 c-34 -46 -73
-100 -86 -121 -13 -20 -27 -34 -30 -29 -74 90 -351 482 -351 497 0 3 33 -28
73 -71 79 -83 266 -253 279 -253 17 0 5 19 -100 151 -335 426 -392 499 -432
554 -50 68 -120 185 -120 200 0 5 80 -73 178 -175 97 -102 284 -294 414 -428z
m1581 269 c88 -54 86 -206 -4 -303 -25 -26 -38 -35 -34 -23 16 49 35 131 35
150 0 11 -18 -16 -39 -60 -53 -113 -143 -212 -106 -117 20 50 35 122 25 122
-4 0 -16 -19 -26 -42 -33 -74 -142 -193 -160 -176 -2 3 9 34 26 69 43 90 39
118 -6 49 -45 -68 -100 -127 -136 -146 -16 -8 -28 -12 -28 -10 0 3 15 34 34
68 50 92 56 124 12 63 -70 -95 -158 -173 -186 -163 -5 2 3 21 18 43 15 22 35
58 45 80 16 36 11 32 -59 -43 -77 -84 -116 -112 -154 -112 -18 0 -14 9 30 72
27 39 50 76 50 81 0 6 -37 -26 -83 -70 -58 -57 -94 -84 -121 -91 -49 -14 -63
-6 -38 22 26 29 72 99 72 109 0 5 -27 -16 -61 -47 -70 -65 -125 -96 -169 -96
l-32 0 22 28 c63 81 80 106 75 110 -2 2 -30 -18 -62 -45 -32 -28 -72 -58 -90
-67 -63 -32 -100 -11 -72 41 22 41 154 177 236 244 105 83 299 179 253 124
-17 -21 11 -20 52 1 32 17 293 99 443 140 106 29 186 27 238 -5z m-46 -478
c-35 -60 -166 -203 -187 -203 -7 0 14 28 46 63 33 34 73 80 89 102 28 39 76
95 81 95 2 0 -11 -25 -29 -57z m-178 -64 c-38 -54 -63 -78 -108 -104 -15 -9
105 146 123 157 28 19 24 3 -15 -53z m-163 -25 c-33 -50 -90 -106 -127 -125
-21 -10 -40 -19 -42 -19 -2 0 36 41 85 91 85 87 120 110 84 53z m-962 -147
c-42 -67 -99 -158 -125 -203 -48 -80 -74 -112 -85 -102 -9 10 93 196 162 297
133 192 169 199 48 8z m779 102 c-27 -47 -99 -116 -133 -128 -17 -5 -30 -8
-30 -6 0 3 20 23 44 45 24 22 54 56 67 75 21 31 34 40 62 44 5 0 0 -13 -10
-30z m-181 -46 c-47 -59 -84 -91 -126 -108 -21 -9 -40 -15 -42 -12 -2 2 19 21
47 42 28 21 62 54 77 73 23 31 61 55 71 46 2 -2 -10 -20 -27 -41z m-465 -28
c-34 -33 -67 -55 -80 -55 -18 0 -11 10 38 55 83 75 122 75 42 0z m323 47 c0
-17 -114 -125 -147 -138 -43 -18 -56 -10 -22 13 13 10 52 43 86 75 58 54 83
69 83 50z m-181 -39 c-55 -59 -72 -73 -108 -89 -41 -18 -54 -10 -20 13 13 10
47 39 74 65 62 59 108 69 54 11z m711 -53 c0 -29 -160 -165 -174 -149 -3 4
162 159 170 159 2 0 4 -5 4 -10z m-229 -88 c-43 -52 -101 -96 -141 -107 -21
-6 -18 -1 15 26 22 19 53 47 70 64 34 34 76 65 88 65 5 0 -9 -22 -32 -48z
m-159 1 c-46 -65 -176 -173 -208 -173 -8 0 174 176 196 190 27 17 32 10 12
-17z m-537 -67 c-90 -103 -245 -236 -274 -236 -22 0 290 299 312 300 14 0 4
-16 -38 -64z m355 34 c-32 -46 -118 -116 -162 -133 -43 -17 -44 -19 122 131
46 41 69 42 40 2z m-189 -28 c-52 -61 -136 -134 -187 -161 -61 -33 -60 -25 3
28 32 27 87 79 123 115 79 79 124 93 61 18z m-522 -129 c-17 -26 -237 -183
-257 -183 -13 0 -12 5 8 25 26 26 253 183 258 179 2 -1 -2 -10 -9 -21z m874
-88 c15 -31 27 -58 27 -60 0 -11 -187 -4 -292 11 -111 15 -171 33 -118 34 14
0 90 16 170 34 80 19 154 34 165 35 16 1 28 -13 48 -54z m603 -56 c-15 -22
-39 -44 -53 -50 -24 -9 -75 -5 -97 9 -5 2 31 26 80 51 49 25 91 42 92 38 2 -4
-8 -26 -22 -48z m-1298 -97 c-94 -79 -214 -173 -234 -185 -6 -3 36 40 93 96
92 92 119 127 95 127 -4 0 -91 -80 -193 -179 -179 -172 -271 -249 -206 -171
16 18 98 106 184 196 103 107 164 164 177 164 12 0 44 7 71 14 112 31 113 23
13 -62z m167 12 c-84 -75 -250 -197 -317 -232 -45 -24 -54 -27 -33 -10 102 79
323 258 334 272 7 9 25 16 40 16 25 -1 24 -3 -24 -46z m984 -131 c12 -85 3
-136 -26 -148 -24 -9 -32 4 -48 81 -19 92 -19 106 7 150 22 37 22 37 39 16 9
-12 22 -56 28 -99z m101 70 c0 -10 -6 -13 -15 -9 -9 3 -18 -1 -22 -10 -8 -21
4 -29 21 -15 10 9 16 9 21 1 10 -16 -2 -40 -20 -40 -8 0 -15 -7 -15 -15 0 -18
12 -19 28 -3 12 12 11 15 31 -59 7 -24 20 -47 31 -53 29 -16 110 -32 152 -31
20 0 39 -3 42 -7 3 -5 39 -7 80 -5 42 1 76 -1 76 -5 0 -4 35 -7 78 -8 42 0 88
-6 100 -13 13 -7 22 -14 20 -15 -1 -1 -108 5 -236 15 -171 12 -239 21 -256 33
-20 13 -26 13 -35 2 -12 -15 2 -27 85 -71 63 -33 204 -87 217 -82 6 2 -11 14
-38 28 -28 13 -51 27 -53 32 -2 4 -12 7 -23 7 -10 0 -19 4 -19 9 0 9 69 7 206
-5 l61 -5 -29 -31 c-16 -17 -32 -44 -35 -59 -5 -27 -7 -28 -32 -15 -14 8 -72
28 -128 46 -65 20 -101 36 -96 43 4 7 0 8 -12 3 -23 -9 -57 2 -49 16 5 8 1 9
-11 4 -26 -9 -55 2 -48 20 6 16 -22 20 -32 4 -9 -15 -41 -12 -58 4 -8 8 -20
14 -28 14 -8 -1 -23 0 -33 0 -18 2 -18 3 3 26 30 32 40 111 25 193 -6 34 -10
64 -9 65 2 2 15 4 29 4 17 1 26 -3 26 -13z m-250 -72 c0 -10 -7 -21 -15 -25
-8 -3 -15 -1 -15 5 0 6 -9 8 -20 4 -15 -5 -20 -2 -20 10 0 10 5 15 13 12 8 -3
20 -1 28 4 21 13 29 11 29 -10z m-18 -40 c11 6 21 9 23 7 2 -2 5 -27 7 -56 2
-28 6 -52 9 -52 4 0 10 -11 13 -24 10 -42 55 -85 99 -97 23 -6 49 -17 59 -26
11 -9 18 -11 23 -4 9 16 23 13 42 -8 13 -15 20 -17 34 -8 14 9 22 7 36 -6 12
-10 27 -14 41 -10 16 4 27 0 37 -13 11 -15 17 -16 23 -6 11 16 62 -1 62 -20 0
-9 3 -9 11 -1 9 9 22 8 53 -4 95 -37 57 -44 -63 -13 -42 11 -134 33 -205 50
-71 17 -135 35 -142 41 -14 12 -34 4 -34 -13 0 -14 153 -163 218 -213 29 -22
50 -45 48 -52 -3 -6 1 -10 7 -7 13 5 94 -63 85 -71 -16 -16 -150 79 -141 101
4 10 0 12 -11 8 -21 -8 -107 62 -99 82 4 10 1 14 -9 12 -8 -2 -37 17 -63 41
-35 32 -44 46 -34 52 7 4 10 11 6 16 -5 4 -12 1 -17 -7 -7 -12 -12 -12 -28 3
-14 12 -28 16 -45 12 -22 -6 -27 -15 -34 -53 -10 -61 -10 -198 0 -289 5 -45 5
-73 -1 -73 -13 0 -35 56 -27 69 3 6 -1 18 -9 27 -21 20 -20 44 0 44 9 0 14 6
11 13 -2 6 -10 11 -16 9 -15 -3 -14 45 2 52 10 5 10 7 0 12 -18 8 -16 44 2 44
8 0 15 5 15 10 0 6 -7 13 -15 16 -22 9 -19 45 5 51 24 6 26 19 4 27 -15 6 -16
17 -9 84 8 81 8 136 -1 164 -4 13 0 15 17 11 16 -4 20 -2 17 8 -3 8 -11 14
-19 14 -18 0 -29 15 -29 40 0 14 3 16 12 7 8 -8 17 -8 30 -1z m986 -260 c11
-15 36 -59 56 -99 43 -86 74 -122 177 -208 44 -37 86 -79 95 -95 25 -49 134
-370 123 -363 -6 3 -49 84 -96 180 -80 162 -89 176 -141 216 -31 24 -82 67
-114 97 l-58 54 0 -46 c0 -38 -4 -48 -22 -58 -13 -6 -89 -61 -169 -121 l-147
-109 -158 -34 c-88 -19 -175 -39 -194 -46 -34 -11 -414 -14 -490 -3 -26 3 -30
2 -15 -5 11 -4 99 -20 195 -35 96 -15 181 -29 188 -31 7 -3 -7 -28 -40 -70
l-52 -65 -355 0 -355 0 59 63 c33 34 74 77 90 95 l30 34 -45 -25 c-25 -14 -96
-57 -158 -96 l-113 -71 -375 0 -375 0 12 22 c28 53 101 115 181 156 81 41 89
42 288 67 113 14 218 25 233 25 15 0 27 4 27 9 0 4 -55 14 -122 20 -68 7 -147
15 -175 18 l-53 6 52 60 c98 113 223 234 258 250 20 9 103 27 185 41 158 27
244 52 372 109 134 60 120 74 119 -125 l-1 -173 32 -65 c33 -69 91 -142 99
-125 18 42 50 77 85 96 123 62 319 72 391 19 15 -11 29 -20 32 -20 3 0 4 42 3
93 -2 82 1 97 23 137 27 48 60 69 112 73 18 1 36 6 39 11 4 4 16 -1 27 -12 27
-27 32 -19 32 45 0 30 5 63 11 74 19 36 70 59 126 58 43 -1 54 -6 71 -28z
m-553 -103 c139 -30 129 -25 106 -57 -11 -15 -28 -49 -39 -75 l-18 -48 -110
98 c-60 53 -111 101 -113 106 -4 12 45 5 174 -24z m-282 -58 c37 -32 99 -85
139 -117 l72 -58 -83 -8 c-72 -6 -124 -21 -217 -63 -12 -6 -24 81 -24 175 0
67 16 131 33 131 7 0 43 -27 80 -60z"/>
<path d="M7889 5604 c-12 -15 -11 -16 11 -9 35 10 49 25 23 25 -11 0 -27 -7
-34 -16z"/>
<path d="M7884 5556 c-10 -8 -16 -18 -12 -22 10 -9 58 12 58 26 0 14 -23 12
-46 -4z"/>
<path d="M7798 5529 c-10 -5 -18 -14 -18 -19 0 -16 26 -11 50 10 21 18 21 20
4 20 -10 0 -27 -5 -36 -11z"/>
<path d="M7895 5499 c-4 -6 -5 -13 -2 -16 8 -7 47 7 47 18 0 13 -37 11 -45 -2z"/>
<path d="M7828 5479 c-17 -9 -26 -39 -12 -39 13 0 42 21 48 35 6 17 -11 19
-36 4z"/>
<path d="M7943 5463 c-14 -5 -18 -33 -5 -33 4 0 14 5 22 10 17 11 2 30 -17 23z"/>
<path d="M7736 5438 c-24 -33 -19 -40 14 -23 31 16 41 45 16 45 -8 0 -22 -10
-30 -22z"/>
<path d="M7876 5434 c-9 -8 -16 -20 -16 -24 0 -14 48 10 54 26 7 19 -19 18
-38 -2z"/>
<path d="M7804 5408 c-23 -10 -51 -58 -34 -58 5 0 21 10 36 23 32 27 30 49 -2
35z"/>
<path d="M7930 5405 c-7 -9 -11 -18 -8 -20 3 -3 11 1 18 10 7 9 11 18 8 20 -3
3 -11 -1 -18 -10z"/>
<path d="M7862 5373 c-14 -5 -46 -62 -39 -69 8 -8 67 47 67 62 0 14 -6 16 -28
7z"/>
<path d="M7706 5348 c-9 -12 -16 -32 -16 -43 1 -18 3 -17 25 8 25 28 33 57 16
57 -6 0 -17 -10 -25 -22z"/>
<path d="M7762 5308 c-14 -14 -16 -58 -3 -58 12 0 27 20 35 48 8 25 -11 31
-32 10z"/>
<path d="M7830 5270 c-11 -11 -20 -30 -20 -42 1 -22 1 -22 25 5 22 25 33 57
20 57 -3 0 -14 -9 -25 -20z"/>
<path d="M7702 5252 c-7 -5 -15 -26 -18 -48 l-6 -39 21 25 c11 14 21 35 21 48
0 25 0 25 -18 14z"/>
<path d="M7915 5237 c-15 -21 -20 -47 -10 -47 3 0 17 8 31 17 25 16 26 16 22
-8 -2 -14 -9 -23 -17 -21 -19 4 -31 -17 -30 -53 l0 -30 17 32 c20 37 62 72 62
52 0 -10 3 -10 12 -1 17 17 28 15 28 -4 0 -13 3 -14 14 -5 18 15 26 -12 14
-50 -6 -16 -4 -36 3 -55 l12 -29 7 40 c4 22 6 45 3 51 -2 7 3 26 11 43 18 34
16 36 -37 45 -21 4 -58 16 -82 26 l-45 19 -15 -22z"/>
<path d="M7760 5217 c0 -1 -4 -17 -9 -34 -12 -43 4 -52 24 -14 19 38 19 51 0
51 -8 0 -15 -1 -15 -3z"/>
<path d="M7845 5200 c-14 -22 -23 -70 -14 -70 9 0 49 58 49 73 0 11 -28 9 -35
-3z"/>
<path d="M7986 5144 c-9 -23 -7 -54 2 -54 9 0 32 44 32 60 0 16 -27 11 -34 -6z"/>
<path d="M7701 5132 c-14 -25 -14 -69 -1 -77 14 -9 36 73 23 86 -8 8 -14 5
-22 -9z"/>
<path d="M7782 5128 c-7 -7 -12 -30 -12 -52 0 -44 11 -40 28 10 12 36 3 61
-16 42z"/>
<path d="M7857 5100 c-18 -26 -23 -80 -8 -80 12 0 34 65 29 87 -3 15 -6 14
-21 -7z"/>
<path d="M7935 5090 c-9 -14 -10 -69 -2 -77 11 -11 18 3 24 46 5 39 -7 56 -22
31z"/>
<path d="M8004 5046 c-7 -28 3 -66 17 -66 5 0 9 20 9 45 0 48 -16 61 -26 21z"/>
<path d="M7727 5043 c-6 -9 -10 -51 -8 -73 2 -24 31 19 31 46 0 23 -15 40 -23
27z"/>
<path d="M7796 5014 c-9 -23 -7 -72 3 -78 10 -7 21 27 21 67 0 29 -14 36 -24
11z"/>
<path d="M7874 4995 c-3 -14 -3 -37 1 -52 9 -37 25 -12 25 40 0 42 -16 50 -26
12z"/>
<path d="M7967 4984 c-11 -11 -8 -74 3 -74 14 0 23 46 13 65 -5 8 -12 12 -16
9z"/>
<path d="M8084 4966 c-8 -20 15 -68 28 -60 11 7 2 54 -12 68 -6 6 -12 2 -16
-8z"/>
<path d="M7747 4943 c-10 -10 -8 -83 2 -83 10 0 21 34 21 68 0 22 -10 29 -23
15z"/>
<path d="M7925 4917 c-8 -32 -3 -72 10 -72 6 0 11 17 13 39 4 46 -14 72 -23
33z"/>
<path d="M7819 4918 c-7 -57 -6 -78 2 -78 13 0 31 39 27 62 -3 24 -27 37 -29
16z"/>
<path d="M8025 4910 c-8 -25 13 -66 27 -52 11 11 1 72 -12 72 -5 0 -11 -9 -15
-20z"/>
<path d="M7877 4864 c-4 -4 -7 -27 -7 -51 0 -56 24 -54 28 2 3 37 -8 62 -21
49z"/>
<path d="M7986 4853 c-9 -10 -7 -91 3 -97 12 -8 21 18 21 59 0 33 -11 51 -24
38z"/>
<path d="M7767 4834 c-4 -4 -7 -27 -7 -50 0 -24 -4 -45 -10 -49 -12 -8 -8
-107 6 -112 10 -3 34 37 34 57 0 6 -9 10 -21 10 -16 0 -19 4 -13 23 3 12 12
29 19 37 27 31 19 111 -8 84z"/>
<path d="M7817 4753 c-14 -47 -18 -83 -10 -83 18 0 44 43 41 68 -4 30 -24 41
-31 15z"/>
<path d="M7920 4745 c-12 -32 -13 -56 -1 -74 12 -19 31 17 31 58 0 40 -17 49
-30 16z"/>
<path d="M7850 4645 c0 -52 13 -59 29 -14 16 46 14 59 -9 59 -17 0 -20 -7 -20
-45z"/>
<path d="M7779 4613 c-6 -17 -6 -30 0 -36 15 -15 41 11 41 39 0 33 -28 31 -41
-3z"/>
<path d="M7649 4584 c-12 -14 -11 -16 5 -13 11 2 21 10 24 17 5 17 -13 15 -29
-4z"/>
<path d="M7827 4584 c-4 -4 -7 -14 -7 -23 0 -11 3 -12 11 -4 6 6 10 16 7 23
-2 6 -7 8 -11 4z"/>
<path d="M8160 4295 c0 -8 5 -15 10 -15 6 0 10 7 10 15 0 8 -4 15 -10 15 -5 0
-10 -7 -10 -15z"/>
<path d="M8206 4224 c-9 -22 -8 -24 9 -24 8 0 15 6 15 14 0 22 -17 28 -24 10z"/>
<path d="M8097 4186 c-6 -15 1 -26 15 -26 4 0 8 9 8 20 0 23 -15 27 -23 6z"/>
<path d="M8005 4130 c-3 -5 -3 -15 1 -21 6 -11 23 6 24 24 0 10 -18 9 -25 -3z"/>
<path d="M8162 4098 c-14 -14 -16 -38 -2 -38 13 0 32 38 22 44 -5 3 -14 0 -20
-6z"/>
<path d="M8062 4058 c-14 -14 -16 -38 -2 -38 13 0 32 38 22 44 -5 3 -14 0 -20
-6z"/>
<path d="M7967 4009 c-3 -13 -1 -19 6 -16 15 5 22 37 9 37 -5 0 -12 -9 -15
-21z"/>
<path d="M8096 3944 c-17 -17 -22 -44 -7 -44 10 0 26 19 34 43 8 21 -6 22 -27
1z"/>
<path d="M7997 3929 c-17 -10 -24 -39 -9 -39 14 0 44 38 35 43 -5 3 -16 1 -26
-4z"/>
<path d="M7891 3906 c-19 -23 4 -28 24 -6 15 17 16 20 3 20 -9 0 -21 -6 -27
-14z"/>
<path d="M7912 3815 c-25 -18 -29 -35 -8 -35 17 0 39 26 34 40 -2 6 -12 4 -26
-5z"/>
<path d="M7821 3811 c-7 -5 -11 -16 -9 -26 3 -16 5 -15 21 3 19 21 11 37 -12
23z"/>
<path d="M8002 3808 c-14 -14 -16 -38 -4 -38 10 0 42 33 42 43 0 11 -25 8 -38
-5z"/>
<path d="M7735 3719 c-4 -6 -4 -13 -1 -16 8 -8 36 5 36 17 0 13 -27 13 -35 -1z"/>
<path d="M7833 3719 c-23 -9 -30 -24 -14 -33 11 -7 45 18 40 31 -3 7 -12 7
-26 2z"/>
<path d="M7910 3705 c-6 -8 -9 -19 -5 -25 9 -14 45 6 45 25 0 19 -24 19 -40 0z"/>
<path d="M7645 3641 c-10 -17 12 -21 25 -6 10 12 10 15 -3 15 -9 0 -18 -4 -22
-9z"/>
<path d="M7731 3636 c-21 -25 9 -31 32 -7 l21 21 -21 0 c-11 0 -26 -6 -32 -14z"/>
<path d="M7823 3633 c-17 -6 -17 -33 0 -33 14 0 37 20 37 32 0 9 -18 9 -37 1z"/>
<path d="M7580 3570 c0 -5 5 -10 10 -10 6 0 10 5 10 10 0 6 -4 10 -10 10 -5 0
-10 -4 -10 -10z"/>
<path d="M7647 3573 c-14 -13 -6 -24 15 -21 27 4 36 28 11 28 -11 0 -23 -3
-26 -7z"/>
<path d="M7730 3556 c0 -24 16 -27 35 -6 18 19 17 20 -8 20 -17 0 -27 -5 -27
-14z"/>
<path d="M7575 3519 c-10 -15 1 -23 20 -15 9 3 13 10 10 16 -8 13 -22 13 -30
-1z"/>
<path d="M7650 3502 c0 -14 11 -21 26 -15 21 8 17 23 -6 23 -11 0 -20 -4 -20
-8z"/>
<path d="M7285 3470 c-3 -5 -1 -10 4 -10 6 0 11 5 11 10 0 6 -2 10 -4 10 -3 0
-8 -4 -11 -10z"/>
<path d="M7597 3473 c-12 -11 -8 -23 8 -23 8 0 15 7 15 15 0 16 -12 20 -23 8z"/>
<path d="M7370 3460 c0 -5 5 -10 10 -10 6 0 10 5 10 10 0 6 -4 10 -10 10 -5 0
-10 -4 -10 -10z"/>
<path d="M7205 3449 c-4 -6 -5 -13 -2 -16 7 -7 27 6 27 18 0 12 -17 12 -25 -2z"/>
<path d="M7540 3445 c0 -8 5 -15 10 -15 6 0 10 7 10 15 0 8 -4 15 -10 15 -5 0
-10 -7 -10 -15z"/>
<path d="M7140 3414 c0 -17 22 -14 28 4 2 7 -3 12 -12 12 -9 0 -16 -7 -16 -16z"/>
<path d="M7230 3410 c0 -5 5 -10 10 -10 6 0 10 5 10 10 0 6 -4 10 -10 10 -5 0
-10 -4 -10 -10z"/>
<path d="M7331 3404 c0 -11 3 -14 6 -6 3 7 2 16 -1 19 -3 4 -6 -2 -5 -13z"/>
<path d="M7175 3389 c-4 -6 -5 -13 -2 -16 7 -7 27 6 27 18 0 12 -17 12 -25 -2z"/>
<path d="M7270 3369 c0 -5 5 -7 10 -4 6 3 10 8 10 11 0 2 -4 4 -10 4 -5 0 -10
-5 -10 -11z"/>
<path d="M7187 3334 c-8 -8 1 -24 14 -24 5 0 9 7 9 15 0 15 -12 20 -23 9z"/>
<path d="M7320 3329 c0 -5 5 -7 10 -4 6 3 10 8 10 11 0 2 -4 4 -10 4 -5 0 -10
-5 -10 -11z"/>
<path d="M7250 3316 c0 -2 7 -9 15 -16 13 -11 14 -10 9 4 -5 14 -24 23 -24 12z"/>
<path d="M7215 3290 c-3 -5 1 -10 9 -10 9 0 16 5 16 10 0 6 -4 10 -9 10 -6 0
-13 -4 -16 -10z"/>
<path d="M7290 3259 c0 -5 5 -7 10 -4 6 3 10 8 10 11 0 2 -4 4 -10 4 -5 0 -10
-5 -10 -11z"/>
<path d="M7245 3250 c-3 -5 1 -10 10 -10 9 0 13 5 10 10 -3 6 -8 10 -10 10 -2
0 -7 -4 -10 -10z"/>
<path d="M8057 5573 c-3 -5 -2 -15 3 -22 10 -17 43 -6 38 12 -6 15 -34 22 -41
10z"/>
<path d="M6270 4051 c0 -6 11 -23 24 -38 20 -23 27 -26 38 -15 10 10 9 14 -9
18 -12 4 -25 15 -28 25 -6 19 -25 27 -25 10z"/>
<path d="M6245 4020 c3 -5 11 -10 16 -10 6 0 7 5 4 10 -3 6 -11 10 -16 10 -6
0 -7 -4 -4 -10z"/>
<path d="M6270 3988 c0 -19 29 -58 42 -58 6 0 4 8 -5 18 -10 10 -17 24 -17 30
0 6 -4 14 -10 17 -5 3 -10 0 -10 -7z"/>
<path d="M6350 3986 c0 -9 7 -19 15 -23 25 -9 27 2 5 22 -18 17 -20 17 -20 1z"/>
<path d="M6325 3950 c3 -5 8 -10 11 -10 2 0 4 5 4 10 0 6 -5 10 -11 10 -5 0
-7 -4 -4 -10z"/>
<path d="M6400 3935 c7 -9 15 -13 17 -11 7 7 -7 26 -19 26 -6 0 -6 -6 2 -15z"/>
<path d="M6310 3902 c0 -14 39 -46 47 -39 3 4 -2 16 -12 27 -19 21 -35 26 -35
12z"/>
<path d="M6370 3889 c7 -11 14 -18 17 -15 8 8 -5 36 -17 36 -7 0 -7 -6 0 -21z"/>
<path d="M6200 3888 c0 -9 12 -30 28 -47 25 -28 28 -29 39 -13 14 23 -7 58
-24 41 -8 -8 -16 -4 -27 12 -12 18 -16 20 -16 7z"/>
<path d="M6300 3842 c0 -10 22 -32 32 -32 15 0 8 15 -12 28 -11 7 -20 9 -20 4z"/>
<path d="M6282 3773 c31 -30 47 -26 26 6 -7 12 -22 21 -33 21 -18 0 -17 -2 7
-27z"/>
<path d="M7505 4381 c-3 -5 -1 -12 4 -15 5 -3 11 1 15 9 6 16 -9 21 -19 6z"/>
<path d="M7440 4354 c0 -8 5 -12 10 -9 6 3 10 10 10 16 0 5 -4 9 -10 9 -5 0
-10 -7 -10 -16z"/>
<path d="M7370 4335 c-9 -11 -10 -19 -3 -26 7 -7 14 -5 23 6 9 11 10 19 3 26
-7 7 -14 5 -23 -6z"/>
<path d="M7297 4316 c-21 -22 -22 -36 -2 -36 17 0 29 22 23 41 -3 8 -9 6 -21
-5z"/>
<path d="M7206 4276 c-11 -18 -13 -27 -4 -32 12 -8 38 22 38 43 0 21 -16 15
-34 -11z"/>
<path d="M7118 4256 c-16 -12 -28 -27 -28 -34 0 -20 25 -14 50 13 32 34 14 51
-22 21z"/>
<path d="M7005 4246 c-17 -7 -37 -21 -45 -31 -14 -17 -13 -18 24 -12 37 6 76
31 76 49 0 11 -20 9 -55 -6z"/>
<path d="M6905 4148 c-41 -15 -58 -29 -47 -40 12 -12 95 29 87 42 -4 6 -7 10
-8 9 -1 0 -15 -5 -32 -11z"/>
<path d="M6710 3990 c0 -5 5 -10 11 -10 5 0 7 5 4 10 -3 6 -8 10 -11 10 -2 0
-4 -4 -4 -10z"/>
<path d="M6660 3970 c0 -5 10 -10 23 -10 18 0 19 2 7 10 -19 13 -30 13 -30 0z"/>
<path d="M6993 3393 c-20 -7 -15 -23 7 -23 11 0 20 4 20 9 0 13 -12 19 -27 14z"/>
<path d="M6923 3383 c-18 -6 -16 -23 1 -23 17 0 30 16 19 23 -5 2 -14 2 -20 0z"/>
<path d="M6850 3346 c0 -11 9 -16 26 -16 31 0 28 23 -4 28 -15 2 -22 -2 -22
-12z"/>
<path d="M6775 3340 c-3 -5 3 -10 14 -10 11 0 23 5 26 10 3 6 -3 10 -14 10
-11 0 -23 -4 -26 -10z"/>
<path d="M6933 3338 c2 -7 10 -13 17 -13 7 0 15 6 18 13 2 7 -5 12 -18 12 -13
0 -20 -5 -17 -12z"/>
<path d="M7000 3336 c0 -9 7 -16 16 -16 9 0 14 5 12 12 -6 18 -28 21 -28 4z"/>
<path d="M7591 3297 c-6 -8 -8 -17 -4 -20 7 -8 33 11 33 24 0 13 -16 11 -29
-4z"/>
<path d="M7550 3270 c0 -5 5 -10 10 -10 6 0 10 5 10 10 0 6 -4 10 -10 10 -5 0
-10 -4 -10 -10z"/>
<path d="M7582 3011 c4 -13 18 -16 19 -4 0 4 -5 9 -11 12 -7 2 -11 -2 -8 -8z"/>
<path d="M7570 2960 c0 -5 5 -10 10 -10 6 0 10 5 10 10 0 6 -4 10 -10 10 -5 0
-10 -4 -10 -10z"/>
<path d="M7600 2935 c0 -8 5 -15 10 -15 6 0 10 7 10 15 0 8 -4 15 -10 15 -5 0
-10 -7 -10 -15z"/>
<path d="M7570 2911 c0 -6 5 -13 10 -16 6 -3 10 1 10 9 0 9 -4 16 -10 16 -5 0
-10 -4 -10 -9z"/>
<path d="M7615 2889 c-9 -14 -2 -20 14 -10 8 6 9 11 3 15 -6 3 -14 1 -17 -5z"/>
<path d="M7965 2821 c-3 -5 -1 -12 5 -16 5 -3 10 1 10 9 0 18 -6 21 -15 7z"/>
<path d="M8015 2810 c-3 -5 -1 -10 4 -10 6 0 11 5 11 10 0 6 -2 10 -4 10 -3 0
-8 -4 -11 -10z"/>
<path d="M8015 2750 c3 -5 8 -10 11 -10 2 0 4 5 4 10 0 6 -5 10 -11 10 -5 0
-7 -4 -4 -10z"/>
<path d="M7326 2933 c-11 -11 -6 -23 9 -23 8 0 15 4 15 9 0 13 -16 22 -24 14z"/>
<path d="M7360 2890 c0 -5 5 -10 10 -10 6 0 10 5 10 10 0 6 -4 10 -10 10 -5 0
-10 -4 -10 -10z"/>
<path d="M7330 2870 c0 -11 7 -20 15 -20 17 0 18 2 9 24 -9 23 -24 20 -24 -4z"/>
<path d="M7390 2830 c0 -5 5 -10 10 -10 6 0 10 5 10 10 0 6 -4 10 -10 10 -5 0
-10 -4 -10 -10z"/>
<path d="M7325 2820 c-3 -5 -1 -10 4 -10 6 0 11 5 11 10 0 6 -2 10 -4 10 -3 0
-8 -4 -11 -10z"/>
<path d="M7360 2800 c0 -5 5 -10 10 -10 6 0 10 5 10 10 0 6 -4 10 -10 10 -5 0
-10 -4 -10 -10z"/>
<path d="M7425 2800 c-3 -5 -1 -10 4 -10 6 0 11 5 11 10 0 6 -2 10 -4 10 -3 0
-8 -4 -11 -10z"/>
<path d="M7310 2780 c0 -5 5 -10 10 -10 6 0 10 5 10 10 0 6 -4 10 -10 10 -5 0
-10 -4 -10 -10z"/>
<path d="M7610 2590 c0 -5 5 -10 10 -10 6 0 10 5 10 10 0 6 -4 10 -10 10 -5 0
-10 -4 -10 -10z"/>
<path d="M6730 2545 c-52 -7 -114 -21 -137 -30 -41 -16 -114 -86 -164 -157
-27 -37 -21 -34 85 45 92 67 111 76 243 112 166 45 157 55 -27 30z"/>
<path d="M7660 2670 c0 -5 5 -10 10 -10 6 0 10 5 10 10 0 6 -4 10 -10 10 -5 0
-10 -4 -10 -10z"/>
<path d="M7760 2640 c0 -5 5 -10 10 -10 6 0 10 5 10 10 0 6 -4 10 -10 10 -5 0
-10 -4 -10 -10z"/>
<path d="M7820 2630 c0 -5 5 -10 11 -10 5 0 7 5 4 10 -3 6 -8 10 -11 10 -2 0
-4 -4 -4 -10z"/>
<path d="M7786 2593 c-6 -14 -5 -15 5 -6 7 7 10 15 7 18 -3 3 -9 -2 -12 -12z"/>
<path d="M7395 2620 c-3 -5 1 -10 9 -10 9 0 16 5 16 10 0 6 -4 10 -9 10 -6 0
-13 -4 -16 -10z"/>
<path d="M7390 2570 c0 -5 5 -10 10 -10 6 0 10 5 10 10 0 6 -4 10 -10 10 -5 0
-10 -4 -10 -10z"/>
<path d="M7475 2570 c-3 -5 1 -10 10 -10 9 0 13 5 10 10 -3 6 -8 10 -10 10 -2
0 -7 -4 -10 -10z"/>
<path d="M7435 2560 c-3 -5 -1 -10 4 -10 6 0 11 5 11 10 0 6 -2 10 -4 10 -3 0
-8 -4 -11 -10z"/>
<path d="M7400 2520 c0 -5 5 -10 10 -10 6 0 10 5 10 10 0 6 -4 10 -10 10 -5 0
-10 -4 -10 -10z"/>
<path d="M7460 2520 c0 -5 5 -10 10 -10 6 0 10 5 10 10 0 6 -4 10 -10 10 -5 0
-10 -4 -10 -10z"/>
<path d="M7560 2510 c0 -5 5 -10 10 -10 6 0 10 5 10 10 0 6 -4 10 -10 10 -5 0
-10 -4 -10 -10z"/>
<path d="M7510 2490 c0 -5 5 -10 10 -10 6 0 10 5 10 10 0 6 -4 10 -10 10 -5 0
-10 -4 -10 -10z"/>
<path d="M7400 2480 c0 -5 5 -10 10 -10 6 0 10 5 10 10 0 6 -4 10 -10 10 -5 0
-10 -4 -10 -10z"/>
<path d="M7490 2449 c0 -5 5 -7 10 -4 6 3 10 8 10 11 0 2 -4 4 -10 4 -5 0 -10
-5 -10 -11z"/>
<path d="M7405 2431 c-6 -11 9 -23 19 -14 9 9 7 23 -3 23 -6 0 -12 -4 -16 -9z"/>
</g>
</svg>
